<?xml version="1.0" encoding="UTF-8"?>
<svg version="1.1" viewBox="0 0 2048 1589" width="1280" height="1280" xmlns="http://www.w3.org/2000/svg">
<path transform="translate(0)" d="m0 0h2048v1589h-2048z" fill="#FDFDFD"/>
<path transform="translate(831,239)" d="m0 0h35l20 10 16 15 5 8 6 19v22l-8 20-6 9-7 8h-5l6 14 14 35 18 46 11 28 20 51 13 33 17 44 4 11 1 6 12 4 11 6 10 8 3 3v-228l-8-7-5-6-6-16 1-13 2-9 7-11 6-7 8-5 15-2h12l16 8 7 7 5 8 4 11-3 25-9 11-11 12-1 201 20-4 19-2h13l18 3 3-11 8-18 8-16 16-31 8-16 15-28 58-116 1-4-10-16-8-14-2-8v-18l2-12 9-21 10-10 12-9 18-7 7-1h11l10 2 15 6 8 6 10 9 6 7 9 19v31l-11 23-2 4-16 12-16 8-17 2-16 1-3 3-28 56-10 19-17 32-57 114h20l39 2 5-10 12-13h2v-2h2v-2h2v-2l9-7 4-1 6-10 12-12 4-5 5-5 7-22 8-8 7-4h22l8 7 6 7 5 15-1 6-7 14-8 7-11 3-9 1-40 40-1 2 6 2 8 6 2 7 2 28h14l22 2 5 5 2 13 1 9 5-1 95-36 110-43 3-1h8l2-15 13-13 6-3h20l14 9 6 7 1 2v25l-8 11-8 7-3 1h-22l-8-4-16 2-49 19-47 18-38 15-34 13-42 16-8 1v82l74-2 57-1 11-1 11-12 5-4 17-6 18 4 12 5 8 7 6 12 2 13v10l-10 18-8 8-10 5-5 1h-19l-10-5-10-8-5-5v-5h-144v85l11 3 22 8 47 20 34 14 38 16 17 6 6 1 13-11 10-6 8-3h32l13 5 11 7 13 12 6 8 5 11 2 9v20l-6 17-6 12-7 9-11 7-16 8-8 2h-21l-18-6-10-6-5-4-1-4-5-2-9-16-4-8-5-27-16-6-45-19-41-17-36-15-15-6-3 81-7 10-7 2-16 1 4 7 3 3 25 3 13 8 7 13v15l-2 11-13 13-5 2h-19l-10-5-8-7-4-9-2-13-1-9-5-5-5-6-8-7-10-11-3-2-81-2-24-1 11 28 30 78 13 34 10 26v6l13 3 10 11 6 10v16l-5 12-9 10-6 3-14 2h-9l-14-8-8-11-2-3-1-8v-11l2-15v-8l-17-45-38-100-11-27-44-2-10-1 1 19 1 115 1 77 1 44 19 10 8 8 9 12 7 24-2 22-3 10-9 14-4 5-11 9-5 4-11 5h-37l-21-11-10-9-9-12-7-21v-9l3-21 9-16 6-9 22-15h6v-255l-48 2-33 1-4 1-14 27-15 28-37 74 2 12v21l-6 11-6 7-9 4h-19l-10-5-5-4-6-12v-15l2-11 12-12 8-2 11-1 2-9 5-12 12-22 16-31 26-52-42 2-30 1-5 2-14 12-113 113-1 2v19l-2 9-8 14-10 9-9 3-16 2-7-1-16-8-6-8-6-10-1-13 1-18 9-13 9-6 13-6h22l8-7 11-11 4-5 8-7 8-8 3-1 3 1 2-6 6-8 11-12 22-22 8-7 8-8v-1l-52-3-6-7-3-6-2-67-1-12-20 7h-2l-2 11-7 9-7 5-3 1h-21l-9-6-8-8-2-15v-6l8-14 7-6 7-3h17l10 5 7-1 17-7 11-2v-93h-44l-73 1-45 1-6 11-7 11-4 5-16 11-17 5h-25l-20-9-12-9-5-5-5-8-7-15-2-10v-10l2-12 8-21 7-8 11-11 14-7 3-1h38l19 9 9 9 7 8 6 10 2 8h76l87 2-1-10-2-74v-17l-9-3-7-3h-7l-30 7-10-3-13-5-5-5-7-9-4-8v-24l7-13 11-10 9-5 4-1h17l10 4 12 8 6 8 4 7 2 11v4l23 1 5-1 28-1 5-32 3-7 8-3 13-2h29l-6-7-116-116-6-4-20-3-6-4-9-9-3-6v-20l9-11 5-5 3-2 6-1 16 1 10 8 7 6 2 7 1 12v10l7 2 10 11 7 8 12 12 11 9 5 5 1 4 5 2 10 10 1 4 4 1 13 15 12 12 10 8 2 3-1 3h5l8 9 7 8 18 18 61 2h24l-11-27-11-30-11-28-22-55-16-41-12-31-8-20-4-11-1-5h-17l-20-7-6-4-18-18-7-16-1-4v-13l1-22 10-19 11-11 12-9z" fill="#21AFF7"/>
<path transform="translate(805,646)" d="m0 0h175l19 10 9 8 7 8 1 1v315l-6-1-29-10-2-1-89-1-86-2-2-16v-257l2-47z" fill="#FDFDFD"/>
<path transform="translate(1085,646)" d="m0 0h173v327l-85 2-87 1-14 4-24 9h-1l-1-88v-226l8-10 7-8 17-9z" fill="#FDFDFD"/>
<path transform="translate(758,690)" d="m0 0h13l1 55 2 232 1 18 4 6 110 2 85 1 22 8 1 5h-238l-1-1z" fill="#FDFDFD"/>
<path transform="translate(1291,690)" d="m0 0h13v326l-1 1h-237l2-4 5-4 19-5 191-3 5-10 1-81 1-129z" fill="#FDFDFD"/>
<path transform="translate(1081,790)" d="m0 0h127l18 1 1 2v28l-5 2-10 1h-132v-33z" fill="#21AFF7"/>
<path transform="translate(840,790)" d="m0 0h136l6 1v33h-20l-120-2-7-1v-27l1-3z" fill="#21AFF7"/>
<path transform="translate(852,733)" d="m0 0h44l86 1v31h-147v-31z" fill="#21AFF7"/>
<path transform="translate(1103,733)" d="m0 0h38l86 1v31h-147v-31z" fill="#21AFF7"/>
<path transform="translate(835,850)" d="m0 0h147v31h-147z" fill="#21AFF7"/>
<path transform="translate(1080,850)" d="m0 0h147v30l-1 1h-146z" fill="#21AFF7"/>
<path transform="translate(1290,294)" d="m0 0h12l11 3 8 8 7 10v12l-2 8-7 11-8 6h-26l-8-6-6-7-2-4v-16l2-10 7-8 6-5z" fill="#FDFDFD"/>
<path transform="translate(1551,999)" d="m0 0h21l13 7 4 7 1 4v23l-8 11-8 5-6 2-13-1-9-3-9-7-3-4-1-3v-22l6-9 5-6z" fill="#FDFDFD"/>
<path transform="translate(837,273)" d="m0 0h20l8 3 8 6 6 12v9l-3 12-8 10-8 6-9 1-14-2-6-4-8-8-3-7v-21l12-14z" fill="#FDFDFD"/>
<path transform="translate(1042,1334)" d="m0 0h9l13 3 10 8 3 4 1 3v22l-6 8-8 9-5 2h-20l-13-10-4-5-1-2v-25l7-9 6-5z" fill="#FDFDFD"/>
<path transform="translate(499,785)" d="m0 0 13 1 8 6 8 7 1 3v22l-5 9-4 5-12 6-17-1-8-4-9-8-2-5v-25l8-8 9-7z" fill="#FDFDFD"/>
<path transform="translate(1155,674)" d="m0 0h72v31l-1 3h-74v-31z" fill="#21AFF7"/>
<path transform="translate(912,674)" d="m0 0h70v34h-72l-2-6-1-9v-16l1-2z" fill="#21AFF7"/>
<path transform="translate(1081,906)" d="m0 0h72l2 3v28l-10 1-55 2h-10v-33z" fill="#21AFF7"/>
<path transform="translate(836,906)" d="m0 0h74v31l-1 1h-70l-4-1v-30z" fill="#21AFF7"/>
<path transform="translate(536,579)" d="m0 0h17l8 6 6 7 3 8-1 9-4 10-6 7-5 2h-18l-5-3-9-9-3-10 1-10 6-11 7-5z" fill="#21AFF7"/>
<path transform="translate(1039,237)" d="m0 0h20l8 7 3 4v18l-4 6-7 6-6 2h-10l-8-4-6-7-1-3v-17l4-6z" fill="#21AFF7"/>
<path transform="translate(1407,430)" d="m0 0 16 2 7 6 3 7v12l-3 6-7 6-8 2-8-1-10-7-3-6v-16l7-7z" fill="#21AFF7"/>
<path transform="translate(1391,1145)" d="m0 0h15l8 7 1 3v16l-7 8-2 2h-11l-9-4-5-7v-16l4-5z" fill="#21AFF7"/>
<path transform="translate(788,1298)" d="m0 0h9l9 2 6 7-1 13-4 8-5 3-9-1-7-3-6-7-1-2 1-11 3-6z" fill="#21AFF7"/>
</svg>
